<?xml version="1.0" encoding="UTF-8" standalone="no"?>
<!-- Created with Inkscape (http://www.inkscape.org/) -->

<svg
   width="39.677479mm"
   height="39.678513mm"
   viewBox="0 0 39.677479 39.678513"
   version="1.1"
   id="svg1"
   xml:space="preserve"
   xmlns="http://www.w3.org/2000/svg"
   xmlns:svg="http://www.w3.org/2000/svg"><defs
     id="defs1" /><g
     id="layer1"
     transform="translate(-89.6112,-83.918874)"><path
       style="fill:#808080"
       d="m 90.792101,122.27467 -1.173231,-1.19544 8.526471,-8.5295 c 4.689559,-4.69123 8.526479,-8.64722 8.526479,-8.79108 0,-0.14387 -3.83864,-4.101584 -8.530309,-8.794924 l -8.530311,-8.53334 1.255761,-1.25575 1.25575,-1.25576 8.662619,8.66263 8.66263,8.662624 8.6651,-8.662124 8.66511,-8.66213 1.25526,1.25526 1.25525,1.25525 -8.5303,8.53334 c -4.69167,4.69334 -8.53031,8.651054 -8.53031,8.794924 0,0.14386 3.83864,4.10158 8.53031,8.79491 l 8.5303,8.53334 -1.25524,1.25525 -1.25524,1.25524 -8.53334,-8.53031 c -4.69334,-4.69167 -8.65243,-8.53031 -8.79797,-8.53031 -0.14555,0 -4.07324,3.81 -8.7282,8.46667 -4.654959,4.65667 -8.528769,8.46667 -8.608459,8.46667 -0.0797,0 -0.67286,-0.53795 -1.31813,-1.19544 z"
       id="path1" /></g></svg>
