<?xml version="1.0" encoding="UTF-8" standalone="no"?>
<!-- Created with Inkscape (http://www.inkscape.org/) -->

<svg
   width="73.958305mm"
   height="73.479767mm"
   viewBox="0 0 73.958305 73.479767"
   version="1.1"
   id="svg5"
   xml:space="preserve"
   xmlns="http://www.w3.org/2000/svg"
   xmlns:svg="http://www.w3.org/2000/svg"><defs
     id="defs2" /><g
     id="layer1"
     transform="translate(-757.06594,-448.21471)"><g
       id="g7"><g
         id="g1"
         transform="translate(-44.695461,167.99298)"><g
           id="g15"
           transform="matrix(1.3231096,0,0,1.3231096,-231.08915,-99.822976)"><rect
             style="fill:#333333;fill-opacity:1;stroke:#ffffff;stroke-width:2.11667;stroke-dasharray:none;stop-color:#000000"
             id="rect4779-6-62-9-5-3"
             width="30.130493"
             height="30.130493"
             x="592.88062"
             y="472.63937"
             ry="5.786386"
             transform="rotate(-15.981118)" /><g
             id="g5"
             style="fill:#ffffff;stroke:#ffffff;stroke-width:1.00521;stroke-dasharray:none"
             transform="matrix(0.78963484,0,0,0.78963484,153.77603,62.573338)"><circle
               style="fill:#ffffff;fill-opacity:1;stroke:#ffffff;stroke-width:1.00521;stroke-dasharray:none;stop-color:#000000"
               id="path4937-1-1-4-6-6"
               cx="597.35156"
               cy="480.05246"
               r="3.4134536"
               transform="rotate(-15.981118)" /><circle
               style="fill:#ffffff;fill-opacity:1;stroke:#ffffff;stroke-width:1.00521;stroke-dasharray:none;stop-color:#000000"
               id="path4937-1-5-7-6-2-0"
               cx="611.66461"
               cy="495.61847"
               r="3.4134536"
               transform="rotate(-15.981118)" /></g></g><g
           id="g16"
           transform="translate(2.3434234,-0.83597024)"><rect
             style="fill:#ffffff;fill-opacity:1;stroke:#333333;stroke-width:4.23333;stroke-dasharray:none;stop-color:#000000"
             id="rect4779-5-2-1-6"
             width="45.896748"
             height="45.896748"
             x="706.63812"
             y="204.39972"
             ry="8.8142042"
             transform="rotate(7.8731022)" /><circle
             style="fill:#333333;fill-opacity:1;stroke:none;stroke-width:0.42487;stroke-dasharray:none;stop-color:#000000"
             id="path4937-7-2-2-2"
             cx="691.56732"
             cy="325.14349"
             r="4.105783" /></g><path
           style="fill:#000000"
           d="m 836.95971,353.33214 c -1.30968,-0.19349 -7.91885,-1.12208 -14.68704,-2.06353 -8.49143,-1.18116 -12.77936,-1.88893 -13.83362,-2.28338 -3.18582,-1.19196 -5.96273,-4.72926 -6.56097,-8.35753 -0.28245,-1.71301 -0.17479,-2.7392 1.73225,-16.5109 1.11838,-8.07641 2.14662,-15.19928 2.28497,-15.82859 0.6618,-3.01037 3.01154,-5.86376 5.96809,-7.2473 2.7085,-1.26746 4.07322,-1.25157 14.19432,0.16531 4.77243,0.66811 8.83505,1.21474 9.02803,1.21474 0.25616,0 0.0386,-1.08726 -0.8058,-4.02764 -1.37046,-4.77203 -1.44891,-6.12996 -0.46787,-8.09864 1.18995,-2.38793 1.29753,-2.43409 14.7496,-6.32856 6.7158,-1.94428 12.9506,-3.60392 13.8551,-3.6881 1.43711,-0.13374 1.8317,-0.0615 3.12812,0.57279 2.50231,1.22427 2.531,1.2916 6.56119,15.40067 1.9883,6.96072 3.61443,13.13119 3.61362,13.71215 -8.1e-4,0.58096 -0.1194,1.48079 -0.26353,1.99962 -0.33118,1.19217 -1.83433,2.96444 -2.96741,3.49869 -0.47774,0.22526 -4.67863,1.50496 -9.33529,2.84378 -4.65667,1.33881 -8.49945,2.46279 -8.5395,2.49773 -0.0401,0.0349 -0.78394,5.22981 -1.65308,11.54416 -0.86913,6.31435 -1.70019,12.05496 -1.84678,12.7569 -0.85086,4.07412 -4.27273,7.46971 -8.41273,8.34813 -1.69082,0.35875 -2.63127,0.33901 -5.74167,-0.1205 z m 6.36472,-4.44339 c 1.47418,-0.68646 2.99465,-2.27721 3.48525,-3.64638 0.49275,-1.37513 4.36246,-29.83751 4.23916,-31.17974 -0.20426,-2.22358 -1.6223,-4.26329 -3.70128,-5.32391 -1.05485,-0.53815 -2.83175,-0.81683 -21.52582,-3.37601 -10.65274,-1.45835 -11.01287,-1.4568 -13.26709,0.0569 -2.39237,1.6065 -2.43753,1.78141 -4.69589,18.18515 -1.09317,7.94032 -1.98642,14.96501 -1.985,15.61042 0.005,2.42734 2.21399,5.42669 4.48336,6.08842 1.3837,0.40346 28.4733,4.16239 30.17447,4.18698 1.00789,0.0146 1.86639,-0.17044 2.79284,-0.60185 z m -16.44506,-18.39693 c -1.55689,-0.70706 -2.35507,-1.94196 -2.35507,-3.64364 0,-1.54189 0.53374,-2.47353 1.98168,-3.45899 1.67417,-1.13943 3.97067,-0.59069 5.35555,1.27968 1.33853,1.80776 0.52925,4.63859 -1.63861,5.73178 -1.42476,0.71847 -1.93183,0.73229 -3.34355,0.0912 z m 39.07924,-19.67072 c 1.23954,-0.82133 2.17856,-2.76236 1.94322,-4.01682 -0.85288,-4.54624 -7.03938,-4.78831 -8.0483,-0.31492 -0.77662,3.44344 3.19394,6.26067 6.10508,4.33174 z M 846.7493,299.50346 c 0.29104,-0.11233 0.88635,-0.58123 1.32291,-1.04199 0.72383,-0.76395 0.79375,-0.99809 0.79375,-2.65777 0,-1.71813 -0.0513,-1.87296 -0.91675,-2.76586 -2.96787,-3.06207 -8.00556,-0.32173 -6.90719,3.75728 0.68246,2.53447 3.13835,3.69989 5.70728,2.70834 z"
           id="path16" /></g><path
         style="font-size:44.0921px;font-family:Ubuntu;-inkscape-font-specification:Ubuntu;text-align:center;text-anchor:middle;fill:#1c1f24;stroke-width:1.01993;stroke-linecap:round"
         d="m 771.97924,326.30728 q 0,3.96829 -1.23458,6.92246 -1.23458,2.91008 -3.48328,4.85013 -2.24869,1.89596 -5.37923,2.86599 -3.13054,0.92593 -6.87837,0.92593 -1.85187,0 -4.10057,-0.17637 -2.2046,-0.13227 -4.01238,-0.57319 v -29.62989 q 1.80778,-0.44093 4.01238,-0.5732 2.2487,-0.17637 4.10057,-0.17637 3.74783,0 6.87837,0.97003 3.13054,0.92593 5.37923,2.86598 2.2487,1.89596 3.48328,4.85013 1.23458,2.91008 1.23458,6.87837 z m -16.62272,11.81668 q 6.08471,0 9.08297,-3.08644 2.99826,-3.13054 2.99826,-8.73024 0,-5.5997 -2.99826,-8.68614 -2.99826,-3.13054 -9.08297,-3.13054 -1.80778,0 -2.8219,0.0441 -0.97002,0.0441 -1.36685,0.0882 v 23.36882 q 0.39683,0.0441 1.36685,0.0882 1.01412,0.0441 2.8219,0.0441 z m 26.80796,3.48328 h -4.10056 v -22.92789 h 4.10056 z m -2.07233,-27.07255 q -1.1023,0 -1.89596,-0.70547 -0.74956,-0.74957 -0.74956,-1.98415 0,-1.23458 0.74956,-1.94005 0.79366,-0.74957 1.89596,-0.74957 1.10231,0 1.85187,0.74957 0.79366,0.70547 0.79366,1.94005 0,1.23458 -0.79366,1.98415 -0.74956,0.70547 -1.85187,0.70547 z m 23.50102,24.77976 q -0.52911,0.35274 -2.07233,0.92593 -1.49913,0.52911 -3.52737,0.52911 -2.07233,0 -3.92419,-0.66138 -1.80778,-0.66138 -3.17463,-2.02824 -1.36686,-1.41095 -2.16052,-3.48327 -0.79366,-2.07233 -0.79366,-4.93832 0,-2.51325 0.74957,-4.58558 0.74957,-2.11642 2.16051,-3.61555 1.45504,-1.54322 3.52737,-2.38097 2.07233,-0.88185 4.67376,-0.88185 2.86599,0 4.98241,0.44093 2.16051,0.39682 3.61555,0.74956 v 20.45873 q 0,5.29106 -2.73371,7.67203 -2.73371,2.38097 -8.28931,2.38097 -2.16051,0 -4.10057,-0.35273 -1.89596,-0.35274 -3.3069,-0.83775 l 0.74956,-3.57146 q 1.23458,0.48501 2.99826,0.83775 1.80778,0.39683 3.74783,0.39683 3.65965,0 5.24696,-1.45504 1.63141,-1.45504 1.63141,-4.62967 z m -0.0441,-17.01955 q -0.61729,-0.17637 -1.6755,-0.30864 -1.01412,-0.17637 -2.7778,-0.17637 -3.30691,0 -5.11469,2.16051 -1.76368,2.16051 -1.76368,5.73197 0,1.98415 0.48501,3.39509 0.52911,1.41095 1.36686,2.33689 0.88184,0.92593 1.98414,1.36685 1.1464,0.44092 2.33688,0.44092 1.63141,0 2.99826,-0.44092 1.36686,-0.48501 2.16052,-1.1023 z m 15.25582,19.31234 h -4.10056 v -22.92789 h 4.10056 z m -2.07233,-27.07255 q -1.1023,0 -1.89596,-0.70547 -0.74956,-0.74957 -0.74956,-1.98415 0,-1.23458 0.74956,-1.94005 0.79366,-0.74957 1.89596,-0.74957 1.10231,0 1.85187,0.74957 0.79366,0.70547 0.79366,1.94005 0,1.23458 -0.79366,1.98415 -0.74956,0.70547 -1.85187,0.70547 z m 12.96301,4.14466 h 8.68615 v 3.43918 h -8.68615 v 10.5821 q 0,1.7196 0.26456,2.86599 0.26455,1.1023 0.79365,1.76369 0.52911,0.61728 1.32277,0.88184 0.79366,0.26455 1.85187,0.26455 1.85186,0 2.95417,-0.39683 1.14639,-0.44092 1.58731,-0.61729 l 0.79366,3.39509 q -0.61729,0.30865 -2.16051,0.74957 -1.54323,0.48501 -3.52737,0.48501 -2.33688,0 -3.88011,-0.5732 -1.49913,-0.61728 -2.42506,-1.80777 -0.92593,-1.19049 -1.32276,-2.91008 -0.35274,-1.76368 -0.35274,-4.05647 v -20.45874 l 4.10056,-0.70547 z m 21.64915,19.97372 q 1.45504,0 2.55735,-0.0441 1.14639,-0.0882 1.89596,-0.26456 v -6.83427 q -0.44093,-0.22046 -1.45504,-0.35274 -0.97003,-0.17637 -2.38098,-0.17637 -0.92593,0 -1.98414,0.13228 -1.01412,0.13228 -1.89596,0.5732 -0.83775,0.39683 -1.41095,1.14639 -0.5732,0.70547 -0.5732,1.89596 0,2.20461 1.41095,3.08645 1.41095,0.83775 3.83601,0.83775 z M 850.992,318.10615 q 2.46915,0 4.14465,0.66138 1.7196,0.61729 2.73371,1.80778 1.05821,1.14639 1.49914,2.7778 0.44092,1.58732 0.44092,3.52737 v 14.32993 q -0.52911,0.0882 -1.49913,0.26455 -0.92594,0.13228 -2.11643,0.26456 -1.19048,0.13227 -2.60143,0.22046 -1.36685,0.13227 -2.73371,0.13227 -1.94005,0 -3.57146,-0.39683 -1.63141,-0.39683 -2.82189,-1.23458 -1.19049,-0.88184 -1.85187,-2.29278 -0.66138,-1.41095 -0.66138,-3.3951 0,-1.89596 0.74956,-3.26281 0.79366,-1.36686 2.11642,-2.20461 1.32277,-0.83775 3.08645,-1.23458 1.76368,-0.39682 3.70374,-0.39682 0.61729,0 1.27867,0.0882 0.66138,0.0441 1.23458,0.17637 0.61729,0.0882 1.05821,0.17637 0.44092,0.0882 0.61729,0.13227 v -1.14639 q 0,-1.01412 -0.22046,-1.98415 -0.22047,-1.01411 -0.79366,-1.76368 -0.5732,-0.79366 -1.58732,-1.23458 -0.97002,-0.48501 -2.55734,-0.48501 -2.02824,0 -3.57146,0.30864 -1.49913,0.26456 -2.2487,0.5732 l -0.48501,-3.39509 q 0.79366,-0.35274 2.64553,-0.66138 1.85186,-0.35274 4.01238,-0.35274 z m 22.48694,23.94201 q -3.79192,-0.0882 -5.37924,-1.63141 -1.58731,-1.54322 -1.58731,-4.80604 v -27.51347 l 4.10056,-0.70547 v 27.55756 q 0,1.01412 0.17637,1.6755 0.17637,0.66138 0.5732,1.05821 0.39682,0.39683 1.05821,0.61729 0.66138,0.17637 1.6314,0.30865 z m 40.69691,-15.74088 q 0,3.96829 -1.23458,6.92246 -1.23458,2.91008 -3.48328,4.85013 -2.2487,1.89596 -5.37923,2.86599 -3.13054,0.92593 -6.87837,0.92593 -1.85187,0 -4.10057,-0.17637 -2.2046,-0.13227 -4.01238,-0.57319 v -29.62989 q 1.80778,-0.44093 4.01238,-0.5732 2.2487,-0.17637 4.10057,-0.17637 3.74783,0 6.87837,0.97003 3.13053,0.92593 5.37923,2.86598 2.2487,1.89596 3.48328,4.85013 1.23458,2.91008 1.23458,6.87837 z m -16.62272,11.81668 q 6.0847,0 9.08297,-3.08644 2.99826,-3.13054 2.99826,-8.73024 0,-5.5997 -2.99826,-8.68614 -2.99827,-3.13054 -9.08297,-3.13054 -1.80778,0 -2.8219,0.0441 -0.97003,0.0441 -1.36685,0.0882 v 23.36882 q 0.39682,0.0441 1.36685,0.0882 1.01412,0.0441 2.8219,0.0441 z m 26.80796,3.48328 h -4.10056 v -22.92789 h 4.10056 z m -2.07233,-27.07255 q -1.1023,0 -1.89596,-0.70547 -0.74956,-0.74957 -0.74956,-1.98415 0,-1.23458 0.74956,-1.94005 0.79366,-0.74957 1.89596,-0.74957 1.10231,0 1.85187,0.74957 0.79366,0.70547 0.79366,1.94005 0,1.23458 -0.79366,1.98415 -0.74956,0.70547 -1.85187,0.70547 z m 19.09181,27.60165 q -2.7778,0 -4.89422,-0.88184 -2.07233,-0.88184 -3.52737,-2.46916 -1.41095,-1.58731 -2.11642,-3.74782 -0.70548,-2.20461 -0.70548,-4.85013 0,-2.64553 0.74957,-4.85014 0.79366,-2.2046 2.2046,-3.79192 1.41095,-1.6314 3.43919,-2.51325 2.07233,-0.92593 4.58558,-0.92593 1.54322,0 3.08644,0.26455 1.54323,0.26456 2.95417,0.83775 l -0.92593,3.48328 q -0.92593,-0.44092 -2.16051,-0.70547 -1.19049,-0.26456 -2.55734,-0.26456 -3.43919,0 -5.29106,2.16052 -1.80777,2.16051 -1.80777,6.30517 0,1.85186 0.39683,3.39509 0.44092,1.54322 1.32276,2.64552 0.92593,1.10231 2.33688,1.71959 1.41095,0.5732 3.43918,0.5732 1.63141,0 2.95417,-0.30864 1.32277,-0.30865 2.07233,-0.66138 l 0.5732,3.43918 q -0.35274,0.22046 -1.01412,0.44092 -0.66138,0.17637 -1.49913,0.30865 -0.83775,0.17636 -1.80777,0.26455 -0.92594,0.13227 -1.80778,0.13227 z m 9.25926,-11.94895 q 0,-3.04236 0.88184,-5.29106 0.88184,-2.29279 2.33688,-3.79192 1.45504,-1.49913 3.351,-2.24869 1.89596,-0.74957 3.88011,-0.74957 4.62967,0 7.09883,2.91008 2.46915,2.86599 2.46915,8.77433 0,0.26455 0,0.70547 0,0.39683 -0.0441,0.74957 h -15.69679 q 0.26456,3.57146 2.07233,5.42332 1.80778,1.85187 5.64379,1.85187 2.16051,0 3.61555,-0.35273 1.49913,-0.39683 2.2487,-0.74957 l 0.5732,3.43918 q -0.74957,0.39683 -2.64553,0.83775 -1.85187,0.44092 -4.23284,0.44092 -2.99826,0 -5.20287,-0.88184 -2.16051,-0.92593 -3.57146,-2.51325 -1.41094,-1.58731 -2.11642,-3.74783 -0.66138,-2.2046 -0.66138,-4.80603 z m 15.74088,-2.2487 q 0.0441,-2.7778 -1.41095,-4.54149 -1.41094,-1.80777 -3.92419,-1.80777 -1.41095,0 -2.51325,0.57319 -1.05821,0.52911 -1.80778,1.41095 -0.74957,0.88184 -1.19049,2.02824 -0.39683,1.14639 -0.5291,2.33688 z"
         id="text1-6"
         aria-label="Digital Dice" /></g></g></svg>
