<?xml version="1.0" encoding="UTF-8" standalone="no"?>
<!-- Created with Inkscape (http://www.inkscape.org/) -->

<svg
   width="64.512474mm"
   height="63.658562mm"
   viewBox="0 0 64.512474 63.658562"
   version="1.1"
   id="svg1"
   xml:space="preserve"
   sodipodi:docname="moon-icon.svg"
   inkscape:version="1.3.2 (1:1.3.2+202311252150+091e20ef0f)"
   xmlns:inkscape="http://www.inkscape.org/namespaces/inkscape"
   xmlns:sodipodi="http://sodipodi.sourceforge.net/DTD/sodipodi-0.dtd"
   xmlns="http://www.w3.org/2000/svg"
   xmlns:svg="http://www.w3.org/2000/svg"><sodipodi:namedview
     id="namedview1"
     pagecolor="#ffffff"
     bordercolor="#000000"
     borderopacity="0.25"
     inkscape:showpageshadow="2"
     inkscape:pageopacity="0.0"
     inkscape:pagecheckerboard="0"
     inkscape:deskcolor="#d1d1d1"
     inkscape:document-units="mm"
     inkscape:zoom="1.6957656"
     inkscape:cx="183.98769"
     inkscape:cy="182.80828"
     inkscape:window-width="1850"
     inkscape:window-height="1016"
     inkscape:window-x="0"
     inkscape:window-y="0"
     inkscape:window-maximized="1"
     inkscape:current-layer="svg1" /><defs
     id="defs1" /><g
     id="layer1"
     transform="translate(-53.850957,-121.1578)"
     style="fill:#000000"><path
       style="fill:#000000"
       d="m 81.73739,184.55012 c -7.44201,-1.24878 -13.2331,-4.2082 -18.3916,-9.39868 -11.05128,-11.11976 -12.62269,-28.04312 -3.83431,-41.29365 2.46923,-3.72295 7.27465,-8.05089 11.51028,-10.3666 1.25676,-0.6871 5.11025,-2.3334 5.46177,-2.3334 0.11379,0 -0.34027,0.56555 -1.009,1.25677 -5.12088,5.29307 -8.00995,13.32134 -7.52138,20.90073 0.24315,3.77217 1.20019,7.30117 2.9243,10.78312 3.51086,7.09042 9.03522,11.91972 16.48575,14.41157 3.04837,1.01954 5.36517,1.36905 9.05857,1.36659 7.65227,-0.005 14.44515,-2.86288 19.93203,-8.38547 l 2.00963,-2.0227 -0.50289,1.81292 c -1.4857,5.35604 -4.27156,9.98116 -8.58222,14.24834 -4.57556,4.52941 -9.92812,7.37612 -16.42843,8.7373 -2.83017,0.59265 -8.4194,0.73507 -11.1125,0.28316 z m 9.60035,-30.53598 c -0.478,-0.41015 -1.28582,-0.90695 -1.79514,-1.104 -0.50932,-0.19704 -0.96017,-0.38177 -1.00189,-0.41049 -0.0417,-0.0287 0.16665,-0.66743 0.46303,-1.41934 0.29637,-0.75191 0.53886,-1.785 0.53886,-2.29575 v -0.92864 l 1.38906,0.0632 c 0.76399,0.0348 1.83021,-0.0314 2.36938,-0.14712 0.93128,-0.19983 0.988,-0.1726 1.13399,0.54447 0.0845,0.41515 0.44705,1.35202 0.80562,2.08193 0.35857,0.72991 0.65195,1.4121 0.65195,1.51598 0,0.10387 -0.44648,0.4175 -0.99219,0.69695 -0.5457,0.27945 -1.26364,0.87718 -1.59542,1.32829 -0.33178,0.45112 -0.71459,0.82021 -0.85069,0.82021 -0.1361,0 -0.63855,-0.33558 -1.11656,-0.74573 z m 21.3559,-9.30843 c -0.7276,-0.26849 -2.06706,-0.49739 -2.97656,-0.50867 l -1.65365,-0.0205 v -1.44528 c 0,-0.81308 -0.23923,-2.08469 -0.54689,-2.907 -0.3008,-0.80394 -0.48141,-1.56767 -0.40138,-1.69717 0.08,-0.12951 0.70503,-0.37635 1.38886,-0.54854 0.68383,-0.17219 1.72765,-0.68515 2.3196,-1.13992 0.59195,-0.45476 1.2093,-0.9253 1.37189,-1.04564 0.18996,-0.1406 0.61552,0.24577 1.19063,1.081 0.49225,0.71489 1.40057,1.61997 2.0185,2.0113 0.61792,0.39133 1.19191,0.82222 1.27554,0.95754 0.0836,0.13531 -0.25824,0.80927 -0.75971,1.49768 -0.50147,0.68841 -1.10856,1.93626 -1.34909,2.77301 -0.24052,0.83674 -0.46375,1.51212 -0.49607,1.50085 -0.0323,-0.0113 -0.65406,-0.24018 -1.38167,-0.50866 z m -27.65132,-10.5168 c -0.43369,-1.46088 -0.97875,-2.53907 -1.89642,-3.75128 -0.7083,-0.93564 -1.19591,-1.78665 -1.08358,-1.89114 0.11233,-0.10449 0.89698,-0.67047 1.74366,-1.25773 0.9012,-0.62507 1.9821,-1.70598 2.60717,-2.60717 0.58726,-0.84669 1.16492,-1.64301 1.28368,-1.76961 0.11877,-0.12661 0.95426,0.33793 1.85665,1.03231 1.16026,0.8928 2.25116,1.44937 3.72533,1.90064 1.14654,0.35098 2.08462,0.73547 2.08462,0.85442 0,0.11895 -0.29765,1.00707 -0.66145,1.9736 -0.51534,1.36912 -0.66146,2.25282 -0.66146,4.00025 v 2.24292 h -2.23319 c -1.71669,0 -2.6573,0.15299 -4.06691,0.66146 -1.00854,0.3638 -1.89126,0.66146 -1.9616,0.66146 -0.0703,0 -0.40176,-0.92256 -0.7365,-2.05013 z"
       id="path1" /></g></svg>
