<?xml version="1.0" encoding="UTF-8" standalone="no"?>
<!-- Created with Inkscape (http://www.inkscape.org/) -->

<svg
   width="93.662491mm"
   height="93.595985mm"
   viewBox="0 0 93.662491 93.595985"
   version="1.1"
   id="svg1"
   xml:space="preserve"
   sodipodi:docname="sun-icon.svg"
   inkscape:version="1.3.2 (1:1.3.2+202311252150+091e20ef0f)"
   xmlns:inkscape="http://www.inkscape.org/namespaces/inkscape"
   xmlns:sodipodi="http://sodipodi.sourceforge.net/DTD/sodipodi-0.dtd"
   xmlns="http://www.w3.org/2000/svg"
   xmlns:svg="http://www.w3.org/2000/svg"><sodipodi:namedview
     id="namedview1"
     pagecolor="#ffffff"
     bordercolor="#000000"
     borderopacity="0.25"
     inkscape:showpageshadow="2"
     inkscape:pageopacity="0.0"
     inkscape:pagecheckerboard="0"
     inkscape:deskcolor="#d1d1d1"
     inkscape:document-units="mm"
     inkscape:zoom="1.1533615"
     inkscape:cx="228.89614"
     inkscape:cy="216.75771"
     inkscape:window-width="1850"
     inkscape:window-height="1016"
     inkscape:window-x="0"
     inkscape:window-y="0"
     inkscape:window-maximized="1"
     inkscape:current-layer="svg1" /><defs
     id="defs1" /><g
     id="layer1"
     transform="translate(-69.391962,-237.30155)"
     style="fill:#808080"><path
       style="fill:#808080"
       d="m 109.75871,323.23528 c -3.43827,-4.21421 -6.35144,-7.72404 -6.47371,-7.79961 -0.12228,-0.0756 -4.73237,0.32504 -10.244658,0.89024 -5.512289,0.5652 -10.04046,1.00917 -10.062603,0.98659 -0.02214,-0.0226 0.422707,-4.54966 0.988557,-10.0602 0.56585,-5.51054 0.965604,-10.12145 0.888342,-10.24646 -0.07726,-0.12501 -3.587972,-3.04535 -7.801578,-6.48964 -4.213606,-3.44429 -7.661102,-6.34677 -7.661102,-6.44995 0,-0.10318 3.447496,-3.00566 7.661102,-6.44995 4.213606,-3.44429 7.724316,-6.36463 7.801578,-6.48964 0.07726,-0.12502 -0.322492,-4.73592 -0.888342,-10.24646 -0.56585,-5.51054 -1.010701,-10.03763 -0.988557,-10.0602 0.02214,-0.0226 4.550314,0.42139 10.062603,0.98659 5.512288,0.5652 10.122378,0.9658 10.244658,0.89024 0.12227,-0.0756 3.03933,-3.59016 6.48235,-7.8102 3.44302,-4.22004 6.37916,-7.6331 6.52475,-7.58457 0.14558,0.0485 3.08447,3.53587 6.53086,7.74965 l 6.26615,7.66141 1.70299,-0.0884 c 0.93664,-0.0487 5.51298,-0.48294 10.16965,-0.96509 4.65667,-0.48214 8.48398,-0.85906 8.50515,-0.83758 0.0212,0.0215 -0.42285,4.50389 -0.98668,9.96092 -0.56384,5.45703 -0.9791,10.05179 -0.92281,10.21058 0.0563,0.15879 3.56616,3.11756 7.7997,6.57504 4.23354,3.45749 7.69735,6.38146 7.69735,6.49771 0,0.11625 -3.45102,3.02978 -7.66893,6.4745 -4.21791,3.44472 -7.72862,6.35971 -7.80158,6.47776 -0.073,0.11804 0.33032,4.72325 0.89617,10.23379 0.56585,5.51054 1.0107,10.03664 0.98856,10.058 -0.0222,0.0214 -4.50511,-0.4253 -9.96214,-0.99259 -5.45703,-0.56729 -10.05534,-0.98136 -10.21846,-0.92015 -0.16312,0.0612 -3.1215,3.57374 -6.57418,7.80562 -3.45268,4.23187 -6.37349,7.69432 -6.49069,7.69432 -0.1172,0 -3.02623,-3.448 -6.4645,-7.66222 z m 11.84606,-3.78101 c 2.84549,-3.96544 5.33102,-7.4235 5.52339,-7.68456 0.333,-0.45191 0.79687,-0.40243 9.67555,1.0321 5.12917,0.82873 9.40273,1.42982 9.49679,1.33576 0.0941,-0.0941 -0.50557,-4.36012 -1.33251,-9.48013 -0.82694,-5.12001 -1.41179,-9.3904 -1.29967,-9.48975 0.11211,-0.0994 3.56736,-2.59176 7.67833,-5.53867 4.11096,-2.94692 7.47448,-5.45017 7.47448,-5.56277 0,-0.1126 -3.36352,-2.61585 -7.47448,-5.56277 -4.11097,-2.94691 -7.56622,-5.43932 -7.67833,-5.53867 -0.11212,-0.0993 0.47273,-4.36974 1.29967,-9.48975 0.82694,-5.12001 1.42745,-9.38519 1.33447,-9.47817 -0.12965,-0.12965 -14.53073,2.03415 -18.17371,2.73065 -0.6057,0.1158 -1.1326,-0.52929 -6.17995,-7.56631 -3.03478,-4.23109 -5.6113,-7.6929 -5.72559,-7.6929 -0.11429,0 -2.69081,3.46181 -5.7256,7.6929 -5.05468,7.04724 -5.57336,7.68202 -6.17995,7.5632 -3.45736,-0.67721 -18.027857,-2.87339 -18.163501,-2.73774 -0.135465,0.13546 2.044519,14.65696 2.728558,18.1757 0.118296,0.60853 -0.512108,1.12378 -7.564187,6.18256 -4.231281,3.0353 -7.693239,5.60988 -7.693239,5.7213 0,0.11142 3.461958,2.686 7.693239,5.72129 7.052079,5.05878 7.682483,5.57404 7.564187,6.18257 -0.684039,3.51874 -2.864023,18.04024 -2.728558,18.1757 0.135644,0.13565 14.706141,-2.06054 18.163501,-2.73775 0.60659,-0.11881 1.12527,0.51597 6.17995,7.5632 3.03479,4.2311 5.61134,7.69291 5.72566,7.69291 0.11433,0 2.53601,-3.24446 5.3815,-7.2099 z m -7.49823,-10.15233 c -5.97274,-1.15098 -10.09554,-3.31725 -13.94549,-7.32744 -5.553712,-5.78488 -7.810363,-13.64589 -6.182198,-21.53562 0.992132,-4.80766 2.980383,-8.37411 6.754138,-12.11534 3.69105,-3.65923 8.09813,-5.9218 13.10897,-6.73005 7.05973,-1.13875 14.69476,1.21554 20.02785,6.17566 3.34176,3.10805 5.78029,7.17282 6.9992,11.66689 0.8222,3.03145 0.8222,8.87481 0,11.90625 -2.33573,8.61176 -8.71771,15.00111 -17.36976,17.3898 -1.81713,0.50168 -7.84781,0.86756 -9.39271,0.56985 z m 9.12813,-4.86069 c 6.6427,-2.09265 11.7252,-7.35851 13.54474,-14.03337 0.64498,-2.36605 0.63773,-7.67559 -0.0137,-10.0458 -1.89348,-6.88924 -7.3338,-12.33191 -14.20086,-14.20699 -2.6859,-0.73339 -7.99957,-0.66192 -10.57496,0.14224 -8.59878,2.68495 -14.287496,10.25628 -14.287496,19.01578 0,9.50182 6.338166,17.37066 15.742706,19.54457 2.35902,0.5453 7.42016,0.33001 9.78959,-0.41643 z"
       id="path7" /></g><path
     style="fill:#808080"
     d="m 45.082424,91.927165 c -0.84679,-0.97676 -3.35732,-3.998425 -5.57895,-6.714815 -5.56478,-6.80407 -5.5336,-6.77333 -6.8722,-6.77333 -0.61115,0 -5.10341,0.39349 -9.9828,0.87442 -4.8794,0.48093 -8.94235,0.8037 -9.02879,0.71727 -0.0864,-0.0864 0.26063,-4.52489 0.77127,-9.863222 0.51063,-5.338334 0.85103,-9.907734 0.75645,-10.154222 -0.0946,-0.246488 -3.54448,-3.249708 -7.66643,-6.673822 -4.1219545,-3.424114 -7.49446053,-6.336809 -7.49446053,-6.472656 0,-0.372696 1.78242203,-1.934644 8.70077053,-7.624544 3.46603,-2.850592 6.37884,-5.383445 6.4729,-5.628562 0.0941,-0.245117 -0.24914,-4.806757 -0.76266,-10.136977 -0.51353,-5.33022 -0.85279,-9.772209 -0.75391,-9.871086 0.0989,-0.09888 4.46423,0.227722 9.70078,0.725775 5.23655,0.498053 9.74288,0.902017 10.01405,0.897698 0.28954,-0.0046 2.09513,-1.953869 4.37444,-4.722498 6.22142,-7.5570077 8.81322,-10.525906 9.18155,-10.517432 0.29886,0.0069 6.75683,7.6393765 11.26202,13.310272 1.23176,1.550478 1.65149,1.892313 2.34672,1.911228 0.46567,0.01267 5.005053,-0.382811 10.087513,-0.878842 5.08246,-0.496032 9.32295,-0.819761 9.42331,-0.719399 0.10036,0.100363 -0.21651,4.218155 -0.70417,9.150648 -0.48765,4.932494 -0.88639,9.434762 -0.88609,10.005041 5.5e-4,1.01279 0.17733,1.183202 7.6122,7.337777 4.186396,3.465499 7.615396,6.453712 7.619996,6.640473 0.009,0.379524 -1.34431,1.561699 -9.403266,8.212104 -3.06622,2.530307 -5.65517,4.80959 -5.7532,5.065074 -0.098,0.255484 0.2428,4.825285 0.75743,10.155114 0.51463,5.329828 0.86577,9.760518 0.78031,9.845968 -0.0854,0.0855 -4.13457,-0.23237 -8.99803,-0.70627 -4.86346,-0.4739 -9.350663,-0.89737 -9.971553,-0.94104 l -1.12889,-0.0794 -6.35,7.60356 c -3.4925,4.181955 -6.49325,7.648125 -6.66834,7.702595 -0.17509,0.0545 -1.01118,-0.70014 -1.85797,-1.6769 z"
     id="path1" /></svg>
