<?xml version="1.0" encoding="UTF-8" standalone="no"?>
<!-- Created with Inkscape (http://www.inkscape.org/) -->

<svg
   width="1020.201mm"
   height="1395.0581mm"
   viewBox="0 0 1020.201 1395.0581"
   version="1.1"
   id="svg5"
   xml:space="preserve"
   sodipodi:docname="vfo.svg"
   inkscape:version="1.2 (1:1.2.1+202207142221+cd75a1ee6d)"
   xmlns:inkscape="http://www.inkscape.org/namespaces/inkscape"
   xmlns:sodipodi="http://sodipodi.sourceforge.net/DTD/sodipodi-0.dtd"
   xmlns="http://www.w3.org/2000/svg"
   xmlns:svg="http://www.w3.org/2000/svg"><sodipodi:namedview
     id="namedview7"
     pagecolor="#ffffff"
     bordercolor="#666666"
     borderopacity="1.0"
     inkscape:showpageshadow="2"
     inkscape:pageopacity="0.0"
     inkscape:pagecheckerboard="0"
     inkscape:deskcolor="#d1d1d1"
     inkscape:document-units="mm"
     showgrid="false"
     inkscape:zoom="0.12561027"
     inkscape:cx="-238.83398"
     inkscape:cy="1628.0516"
     inkscape:window-width="1294"
     inkscape:window-height="704"
     inkscape:window-x="72"
     inkscape:window-y="27"
     inkscape:window-maximized="1"
     inkscape:current-layer="layer1" /><defs
     id="defs2" /><g
     inkscape:label="Layer 1"
     inkscape:groupmode="layer"
     id="layer1"
     transform="translate(1982.3584,726.43542)"><path
       style="fill:#ffffff;stroke-width:4.24292"
       d="m -1426.6212,660.36105 c -10.17,-5.16533 -24.2732,-17.20441 -31.3397,-26.7533 -28.7218,-38.81291 -75.8864,-154.57695 -82.9359,-203.56444 -4.6474,-32.29164 -9.752,-33.88376 -117.067,-36.50674 l -88.6024,-2.16586 -62.1398,-161.23132 c -63.6508,-165.152272 -83.4248,-206.539943 -122.2944,-255.971794 -45.4239,-57.76887 -59.3367,-92.558416 -47.1646,-117.944626 7.2887,-15.19916 22.0829,-22.65538 45.1096,-22.7346 45.1964,-0.16041 61.6107,18.16298 122.9844,137.243941 49.6439,96.323321 66.7004,125.754791 72.8791,125.754791 5.1151,0 15.3741,-48.902218 23.5886,-112.437322 21.721,-168.01784 85.1782,-376.37876 165.8687,-544.62929 57.8161,-120.55548 109.9699,-182.89158 135.3765,-161.80652 10.5467,8.75324 -0.6349,45.02854 -56.213,182.43429 -97.7598,241.67559 -121.2193,340.69855 -155.7991,657.65352 -8.2738,75.84238 -16.1678,146.96448 -17.5413,158.04907 l -2.4972,20.15389 h 27.1663 c 46.4228,0 43.6134,9.43477 43.7996,-147.10063 0.1481,-120.817134 1.146,-140.3320612 9.5119,-185.12471 38.5458,-206.40369 118.7188,-363.28756 206.717,-404.50909 40.4907,-18.96737 96.1482,-10.10381 105.786,16.84641 5.5543,15.53321 -4.6221,25.37193 -40.3797,39.03548 -22.7601,8.6971 -33.5851,16.04508 -49.8417,33.83185 -63.7588,69.76271 -119.6014,252.121635 -127.3218,415.781216 -3.5247,74.720594 -0.4021,144.163374 6.8135,151.348744 4.3248,4.30975 17.5127,2.20979 67.6835,-10.77813 71.931,-18.62115 90.8849,-27.31761 138.423,-63.51322 40.5151,-30.84719 73.387,-47.263671 116.9539,-58.406301 79.3825,-20.30234 137.8071,-2.102037 166.549,51.881951 14.64503,27.50924 13.69691,80.14122 -2.13326,118.27721 -38.62304,93.05201 -135.27704,161.23125 -228.56924,161.23125 -69.1014,0 -120.2204,-36.60292 -137.5934,-98.52144 -3.9046,-13.9166 -10.0293,-26.42681 -13.609,-27.80063 -7.4442,-2.85687 -61.9832,24.7757 -82.1825,41.6388 -18.0852,15.09765 -17.3603,28.66289 5.0432,94.36412 21.8046,63.94605 41.0981,94.2457 69.5691,109.25632 26.3801,13.90811 33.8603,27.86734 31.5239,58.83299 -4.6147,61.16106 -48.4302,92.10513 -96.1218,67.88412 z m 282.7167,-356.53344 c 20.9538,-10.14357 38.513,-31.67738 56.6278,-69.44534 16.1,-33.56678 16.2725,-51.70026 0.5502,-57.69558 -24.1293,-9.20065 -69.0718,6.4873 -77.1329,26.92471 -2.0729,5.2559 -6.1289,15.86901 -9.0135,23.58438 -2.8835,7.71552 -14.5138,23.64643 -25.8446,35.40213 -22.8077,23.66423 -26.2637,37.76459 -11.0536,45.10006 15.8577,7.64785 45.6958,5.8946 65.8677,-3.87036 z"
       id="path179-2" /></g></svg>
